<svg version="1.2" xmlns="http://www.w3.org/2000/svg" viewBox="0 0 800 500" width="800" height="500">
	<title>32942610_445799485220</title>
	<defs>
		<linearGradient id="g1" x2="1" gradientUnits="userSpaceOnUse" gradientTransform="matrix(595.474,264.315,-239.426,539.402,389.437,-182.197)">
			<stop offset="0" stop-color="#474747"/>
			<stop offset="1" stop-color="#0b1a72"/>
		</linearGradient>
		<linearGradient id="g2" x2="1" gradientUnits="userSpaceOnUse" gradientTransform="matrix(376.913,-136.582,171.599,473.546,-139.368,115.399)">
			<stop offset="0" stop-color="#0b1a72"/>
			<stop offset="1" stop-color="#474747"/>
		</linearGradient>
		<linearGradient id="g3" x2="1" gradientUnits="userSpaceOnUse" gradientTransform="matrix(410.055,-28.403,27.26,393.56,388.203,3.257)">
			<stop offset="0" stop-color="#fffb21"/>
			<stop offset="1" stop-color="#04c58e"/>
		</linearGradient>
		<linearGradient id="g4" x2="1" gradientUnits="userSpaceOnUse" gradientTransform="matrix(38.758,421.341,-329.213,30.283,292.473,70.304)">
			<stop offset="0" stop-color="#fffb21"/>
			<stop offset="1" stop-color="#04c58e"/>
		</linearGradient>
		<linearGradient id="g5" x2="1" gradientUnits="userSpaceOnUse" gradientTransform="matrix(.633,41.912,-41.913,.633,583.478,284.138)">
			<stop offset="0" stop-color="#fffb21"/>
			<stop offset="1" stop-color="#04c58e"/>
		</linearGradient>
		<linearGradient id="g6" x2="1" gradientUnits="userSpaceOnUse" gradientTransform="matrix(-23.122,-24.733,24.733,-23.121,206.321,199.018)">
			<stop offset="0" stop-color="#fffb21"/>
			<stop offset="1" stop-color="#04c58e"/>
		</linearGradient>
		<linearGradient id="g7" x2="1" gradientUnits="userSpaceOnUse" gradientTransform="matrix(-14.507,-77.409,84.242,-15.787,384.815,512.2)">
			<stop offset="0" stop-color="#fffb21"/>
			<stop offset="1" stop-color="#04c58e"/>
		</linearGradient>
	</defs>
	<style>
		.s0 { fill: #0b1a3b } 
		.s1 { mix-blend-mode: screen;fill: url(#g1) } 
		.s2 { mix-blend-mode: screen;fill: url(#g2) } 
		.s3 { fill: url(#g3) } 
		.s4 { fill: url(#g4) } 
		.s5 { fill: url(#g5) } 
		.s6 { fill: url(#g6) } 
		.s7 { fill: url(#g7) } 
		.s8 { opacity: .7;fill: #ffffff } 
		.s9 { opacity: .5;fill: #ffffff } 
		.s10 { opacity: .4;fill: #ffffff } 
		.s11 { fill: #ffffff } 
	</style>
	<g id="_Artboards_">
	</g>
	<g id="54">
		<g id="&lt;Group&gt;">
			<g id="&lt;Group&gt;">
				<path id="&lt;Path&gt;" class="s0" d="m800 0h-800v500h800z"/>
			</g>
			<path id="&lt;Path&gt;" class="s1" d="m308.5 0c43.9 78.4 40.3 234.3-14.1 290.8-8.7 8.9-15.6 19.9-19.9 32.5-16.2 46.4 8.4 97 54.8 113.1 29.3 10.2 60.2 4.2 83.1-13.3 70.7-54 253.3-29.5 307.3 41.2 10.2 13.4 24.3 24.1 41.5 30 12.9 4.5 26.1 5.8 38.8 4.4v-498.7z"/>
			<path id="&lt;Path&gt;" class="s2" d="m302.2 483.2h-0.1c22.3-10.6 37.3-30.8 42-53.6 2.4-11.8 4.9-17.6 11.8-27.4 30.3-42.5 10-102-39.9-117.2-41.1-12.5-53-34.8-40.4-75.9h-0.1c11.1-36.3-6.2-75.1-40.5-91.2-23.4-11-26.4-14.5-33.6-39.4-12.5-43.2-58.8-65.9-100.1-50.3-28.8 10.8-47.1 37.1-49.2 65.9-2.2 30.1-23 65.2-52.1 96.2v309.7h277.7c4.5-6.5 11-10.4 24.5-16.8z"/>
			<path id="&lt;Path&gt;" class="s3" d="m435.2 0c32.5 58.2 29.9 173.9-10.5 215.8-6.4 6.7-11.5 14.8-14.8 24.1-11.9 34.5 6.3 72.1 40.7 84 21.7 7.6 44.7 3.1 61.7-9.9 52.5-40 188-21.9 228.1 30.6 7.6 9.9 18.1 17.8 30.8 22.3 9.6 3.3 19.4 4.3 28.8 3.2v-370.1z"/>
			<path id="&lt;Path&gt;" class="s4" d="m261.6 485.5v-0.1c19.2-9.1 32.3-26.6 36.3-46.4 2.1-10.2 4.3-15.2 10.2-23.6 26.3-36.8 8.7-88.4-34.5-101.5-35.6-10.9-45.9-30.1-35-65.7 9.5-31.4-5.4-65.1-35.2-79h0.1c-20.3-9.5-22.9-12.6-29.1-34.1-10.8-37.5-51-57-86.7-43.6-24.9 9.4-40.8 32.2-42.6 57.1-1.9 26-19.9 56.4-45.1 83.3v268.1h240.4c3.9-5.7 9.5-9 21.2-14.5z"/>
			<path id="&lt;Path&gt;" class="s5" d="m551.4 287.8c-9.7 6.3-12.4 19.3-6.1 29 6.3 9.7 19.2 12.5 29 6.2 9.7-6.3 12.4-19.3 6.1-29-6.3-9.7-19.3-12.5-29-6.2z"/>
			<path id="&lt;Path&gt;" class="s6" d="m212.1 158.9c-8.9-2.7-18.4 2.3-21.1 11.2-2.8 8.9 2.2 18.4 11.1 21.2 9 2.7 18.4-2.3 21.2-11.2 2.8-8.9-2.2-18.4-11.2-21.2z"/>
			<path id="&lt;Path&gt;" class="s7" d="m458.1 448.8c-11.1-20.8-37.1-28.7-58-17.6-20.8 11.2-28.7 37.1-17.6 58 2.2 4.1 5 7.7 8.2 10.8h59.2c13.6-12.9 17.5-33.8 8.2-51.2z"/>
			<g id="&lt;Group&gt;">
				<path id="&lt;Path&gt;" class="s8" d="m114.3 100.2c-4.2 1.6-8.9-0.5-10.5-4.7-1.6-4.2 0.5-8.9 4.7-10.5 4.2-1.6 8.9 0.5 10.5 4.7 1.7 4.2-0.5 8.9-4.7 10.5z"/>
				<path id="&lt;Path&gt;" class="s8" d="m229.9 318.4c0.7-3 3.7-4.9 6.7-4.2 3.1 0.7 4.9 3.8 4.2 6.8-0.7 3-3.7 4.9-6.7 4.2-3-0.7-4.9-3.7-4.2-6.8z"/>
				<path id="&lt;Path&gt;" class="s9" d="m621.6 121c-1.7 2.2-4.8 2.6-7 0.9-2.2-1.7-2.5-4.9-0.8-7 1.7-2.2 4.8-2.6 7-0.9 2.2 1.7 2.5 4.9 0.8 7z"/>
				<path id="&lt;Path&gt;" class="s10" d="m347.9 201.1c3-0.1 5.5 2.3 5.6 5.3 0.1 3-2.3 5.5-5.3 5.6-3 0.1-5.5-2.3-5.6-5.3-0.1-3 2.3-5.5 5.3-5.6z"/>
				<path id="&lt;Path&gt;" class="s11" d="m610.8 409.1c3.5 1.1 5.6 4.9 4.5 8.5-1.2 3.6-5 5.6-8.5 4.5-3.6-1.1-5.6-4.9-4.5-8.5 1.1-3.6 4.9-5.6 8.5-4.5z"/>
				<g id="&lt;Group&gt;">
					<path id="&lt;Compound Path&gt;" fill-rule="evenodd" class="s11" d="m49.5 293.2q-1 0-2.1-0.3c-2.2-0.5-4.1-1.9-5.3-3.9-1.2-2-1.5-4.3-0.9-6.6 0.9-3.8 4.4-6.5 8.3-6.5q1.1 0 2.1 0.3c4.7 1.1 7.5 5.8 6.3 10.5-1 3.8-4.4 6.5-8.4 6.5zm0-15.3c-3 0-5.7 2.1-6.4 5-0.4 1.7-0.2 3.5 0.7 5.1 0.9 1.5 2.4 2.6 4.1 3q0.8 0.2 1.6 0.2c3.1 0 5.7-2.1 6.5-5 0.9-3.6-1.3-7.2-4.8-8.1q-0.9-0.2-1.7-0.2z"/>
				</g>
				<path id="&lt;Path&gt;" class="s11" d="m316.6 71.9c-1.4-2.3-0.6-5.3 1.8-6.6 2.3-1.3 5.2-0.5 6.6 1.8 1.3 2.3 0.5 5.2-1.8 6.6-2.3 1.3-5.3 0.5-6.6-1.8z"/>
				<g id="&lt;Group&gt;">
					<path id="&lt;Compound Path&gt;" fill-rule="evenodd" class="s11" d="m759.8 108.6c-0.9 0-1.9-0.2-2.7-0.7-1.5-0.7-2.5-1.9-3-3.5-0.5-1.5-0.4-3.1 0.4-4.5 1-2.1 3-3.3 5.3-3.3 1 0 1.9 0.2 2.7 0.7 1.5 0.7 2.5 1.9 3 3.5 0.5 1.5 0.4 3.1-0.3 4.5-1.1 2.1-3.1 3.3-5.4 3.3zm0-10c-1.5 0-2.9 0.8-3.6 2.2-0.4 0.9-0.5 2-0.2 3 0.3 1 1 1.9 2 2.4q0.8 0.4 1.8 0.4c1.5 0 2.9-0.8 3.6-2.2 0.5-0.9 0.6-2 0.2-3-0.3-1-1-1.9-2-2.4q-0.8-0.4-1.8-0.4z"/>
				</g>
				<g id="&lt;Group&gt;">
					<path id="&lt;Compound Path&gt;" fill-rule="evenodd" class="s11" d="m484.2 183.8q-1.6 0-3-0.7c-3.3-1.7-4.7-5.7-3.1-9.1 1.2-2.3 3.5-3.8 6.1-3.8q1.6 0 3 0.7c1.6 0.8 2.8 2.2 3.4 3.9 0.6 1.7 0.5 3.6-0.3 5.2-1.2 2.3-3.5 3.8-6.1 3.8zm0-11.6c-1.8 0-3.5 1.1-4.3 2.7-1.1 2.4-0.2 5.2 2.2 6.4q1 0.5 2.1 0.5c1.8 0 3.5-1 4.3-2.7 0.6-1.1 0.6-2.4 0.2-3.6-0.4-1.2-1.2-2.2-2.4-2.8q-1-0.5-2.1-0.5z"/>
				</g>
				<g id="&lt;Group&gt;">
					<path id="&lt;Compound Path&gt;" fill-rule="evenodd" class="s11" d="m631.3 265.7c-4.1 0-7.6-3.1-8.1-7.2-0.6-4.5 2.7-8.6 7.2-9.2 4.5-0.5 8.6 2.7 9.1 7.2 0.3 2.2-0.3 4.3-1.7 6.1-1.3 1.7-3.3 2.8-5.5 3q-0.5 0.1-1 0.1zm0.1-14.4q-0.4 0-0.8 0c-3.4 0.4-5.8 3.5-5.4 6.9 0.4 3.4 3.5 5.9 6.9 5.5 1.6-0.2 3.1-1.1 4.1-2.4 1.1-1.3 1.5-2.9 1.3-4.6-0.4-3.1-3-5.4-6.1-5.4z"/>
				</g>
				<g id="&lt;Group&gt;">
					<path id="&lt;Compound Path&gt;" fill-rule="evenodd" class="s11" d="m12.2 170.7c-0.8 0-1.5-0.2-2.1-0.6-1-0.6-1.7-1.5-2-2.6-0.3-1-0.1-2.2 0.4-3.2 0.8-1.3 2.2-2.1 3.7-2.1 0.7 0 1.4 0.2 2.1 0.6 2 1.2 2.7 3.8 1.5 5.8-0.7 1.3-2.1 2.1-3.6 2.1zm0-6.5c-0.8 0-1.5 0.5-1.9 1.1-0.3 0.6-0.4 1.2-0.3 1.7 0.2 0.6 0.5 1.1 1.1 1.4 1 0.6 2.4 0.2 3-0.8 0.6-1.1 0.2-2.4-0.8-3.1q-0.5-0.3-1.1-0.3z"/>
				</g>
				<g id="&lt;Group&gt;">
					<path id="&lt;Compound Path&gt;" fill-rule="evenodd" class="s11" d="m215.6 174.9c-2.6 0-5-1.5-5.9-4-0.7-1.5-0.7-3.3 0-4.8 0.7-1.6 1.9-2.8 3.5-3.4q1.1-0.5 2.4-0.5c2.6 0 4.9 1.6 5.9 4 0.6 1.6 0.6 3.3-0.1 4.9-0.6 1.5-1.9 2.7-3.5 3.4q-1.1 0.4-2.3 0.4zm0-10.7q-0.9 0-1.7 0.3c-1 0.5-1.9 1.3-2.3 2.4-0.5 1-0.5 2.2-0.1 3.3 0.7 1.7 2.3 2.7 4.1 2.7q0.8 0 1.6-0.3c1.1-0.4 1.9-1.2 2.4-2.3 0.4-1.1 0.5-2.3 0-3.3-0.7-1.7-2.2-2.8-4-2.8z"/>
				</g>
				<g id="&lt;Group&gt;">
					<path id="&lt;Compound Path&gt;" fill-rule="evenodd" class="s11" d="m505.3 51.3c-3 0-5.7-2.1-6.3-5.1-0.8-3.5 1.5-7 5-7.7q0.7-0.2 1.3-0.2c3.1 0 5.8 2.2 6.4 5.2 0.7 3.5-1.5 7-5 7.7q-0.7 0.1-1.4 0.1zm0-11q-0.4 0-0.9 0.1c-2.4 0.5-4 2.9-3.5 5.4 0.5 2 2.3 3.5 4.4 3.5q0.5 0 1-0.1c2.4-0.5 3.9-2.9 3.4-5.3-0.4-2.1-2.3-3.6-4.4-3.6z"/>
				</g>
				<path id="&lt;Path&gt;" class="s8" d="m791.3 455c1.3 1.9 0.8 4.6-1.1 6-1.9 1.3-4.6 0.9-6-1.1-1.3-1.9-0.8-4.6 1.1-6 1.9-1.3 4.6-0.8 6 1.1z"/>
			</g>
		</g>
	</g>
	<g id="Layer 1">
	</g>
</svg>